<svg xmlns="http://www.w3.org/2000/svg" xmlns:xlink="http://www.w3.org/1999/xlink" version="1.1" width="1360.63" height="1360.63" viewBox="0 0 1360.63 1360.63">
<defs>
<clipPath id="clip_0">
<path transform="matrix(1,0,0,-1,0,1360.63)" d="M0 1360.63H1360.629V0H0Z"/>
</clipPath>
</defs>
<g id="layer_1" data-name="Layer 1">
<g clip-path="url(#clip_0)">
<path transform="matrix(1,0,0,-1,948.8125,471.7516)" d="M0 0C26.794 5.398 47.974 42.971 67.556 60.374 96.387 85.994 126.497 110.045 154.406 136.718 179.79 160.979 198.35 190.689 224.223 214.684 235.971 225.577 248.422 235.672 260.947 245.65 271.795 254.29 296.374 281.964 310.98 281.442 320.021 281.119 329.084 273.599 328.68 263.515 328.123 249.57 306.524 239.77 296.789 232.571 266.084 209.864 238.343 186.732 214.248 156.858 205.309 145.776 196.711 134.637 186.668 124.505 178.951 116.718 153.136 97.953 152.651 86.244 152.282 77.358 164.408 74.619 170.996 70.075 183.179 61.671 199.484 45.775 198.039 29.287 197.059 18.102 189.849 11.122 178.643 13.247 163.627 16.096 159.806 33.009 153.365 44.105 130.796 82.981 102.181 39.102 82.126 19.143 70.87 7.941 59.768-3.181 49.91-15.64 37.979-30.719 32.784-38.167 44.831-54.067 62.516-77.409 79.991-69.9 104.361-61.084 177.487-34.629 250.409-7.605 323.465 19.043 340.338 25.197 397.702 55.1 410.251 30.802 423.734 4.698 346.147-11.424 329.196-18.219 257.271-47.049 181.614-66.877 110.44-97.232 40.433-127.09-25.353-171.532-91.065-209.675-108.687-219.904-126.516-229.846-143.963-240.37-155.214-247.156-169.202-260.56-182.78-261.477-195.783-262.355-204.051-255.195-204.451-241.602-204.94-224.964-190.688-217.585-180.826-206.955-162.313-186.998-157.125-154.455-180.139-135.312-206.847-113.098-243.041-125.51-250.415-159.4-254.521-178.268-225.008-228.248-250.231-236.97-261.861-240.992-277.321-229.105-286.604-224.111-307.217-213.02-327.669-201.611-348.206-190.378-415.481-153.582-484.661-118.928-550.264-79.21-559.172-73.817-576.315-65.045-575.139-51.864-573.669-35.396-557.029-32.06-545.642-37.759-522.11-49.536-492.497-99.795-464.721-60.546-450.817-40.899-490.627-11.876-502.813 .929-511.216 9.759-524.379 28.943-537.586 30.243-553.174 31.777-566.683 11.764-575.937 1.521-584.458-7.911-594.247-25.945-607.241-29.456-622.025-33.45-634.344-20.036-645.309-11.965-678.748 12.647-712.194 37.25-745.566 61.952-758.984 71.884-815.553 101.686-808.076 124.82-803.177 139.976-779.275 138.569-768.609 133.442-754.223 126.526-746.826 110.503-735.682 99.812-712.747 77.809-683.054 62.381-656.176 45.737-644.912 38.762-624.857 19.273-611.938 17.45-598.317 15.528-583.064 35.284-574.842 44.783-559.548 62.454-569.598 68.454-584.137 83.636-595.881 95.899-607.62 108.168-619.365 120.43-628.968 130.455-650.708 145.332-652.378 160.085-654.222 176.382-645.22 179.162-633.111 174.716-618.055 169.188-601.72 150.086-590.23 139.211-577.885 127.528-566.213 115.162-554.867 102.514-530.34 75.176-505.641 48.578-477.52 24.834-464.781 14.078-451.669 3.432-437.83-5.89-420.471-17.584-410.645-11.354-421.685 7.452-428.46 18.991-434.952 29.916-440.326 42.289-443.482 49.556-446.296 56.979-449.731 64.124-452.96 70.837-463.833 82.947-463.982 90.241-464.247 103.167-450.334 105.334-441.788 99.308-430.224 91.154-420.983 69.852-413.128 58.301-405.251 46.718-398.193 32.13-388.667 22.027-378.661 11.415-376.197 12.658-362.525 18.751-348.242 25.116-333.98 32.76-320.49 40.607-303.774 50.33-302.187 54.749-308.261 73.083-315.032 93.522-323.47 150.621-353.871 137.965-390.665 122.648-359.074 88.3-354.096 64.663-352.366 56.453-350.429 44.35-362.328 42.202-377.578 39.449-384.154 67.128-388.398 77.691-402.046 111.652-414.628 145.389-432.266 177.577-438.068 188.166-451.6 202.857-440.458 213.648-425.01 228.609-415.955 203.302-410.771 192.581-405.351 181.374-400.812 163.117-388.612 157.464-379.195 153.1-355.368 157.45-348.498 165.158-334.713 180.626-364.827 245.071-370.544 263.141-380.095 293.33-387.435 328.192-403.138 355.943-410.869 369.607-424.196 379.144-429.988 393.92-435.509 408.003-431.863 417.795-438.394 431.609-443.087 441.534-456.287 453.369-447.737 465.182-442.133 472.924-429.871 473.666-422.774 468.236-411.915 459.928-405.723 437.622-400.395 425.138-392.753 407.23-385.277 389.24-378.498 370.984-352.454 300.849-332.974 228.156-308.159 157.511-301.566 138.74-295.172 119.881-288.355 101.191-285.107 92.286-282.545 80.231-275 73.726-255.867 57.232-226.855 75.613-224.346 97.523-220.302 132.821-229.246 173.75-231.467 209.247-234.107 251.436-236.606 293.635-239.091 335.834-240.084 352.707-241.069 369.581-241.97 386.459-242.722 400.538-249.66 428.771-242.331 441.447-237.525 449.761-227.744 452.435-219.229 446.698-205.552 437.484-211.403 407.863-211.35 394.026-211.059 318.476-206.134 242.86-202.99 167.364-202.282 150.375-201.443 133.429-199.888 116.493-198.653 103.039-200.469 82.873-189.867 72.65-161.341 45.145-141.702 85.444-133.377 106.404-120.973 137.633-114.571 176.227-97.979 205.156-92.737 214.297-88.071 220.916-76.3 216.327-60.554 210.189-66.576 192.75-68.444 179.381-70.736 162.967-73.385 146.609-77.899 130.638-82.334 114.944-92.088 100.952-96.391 85.62-100.269 71.804-97.41 65.277-86.404 56.268-76.763 48.378-55.947 34.374-43.438 39.572-31.138 44.684-21.671 68.718-15.427 79.184-6.985 93.334 1.378 107.531 9.787 121.701 29.714 155.28 49.397 189.265 71.62 221.401 90.887 249.262 112.814 275.208 131.789 303.27 138.964 313.881 170.096 383.034 189.908 349.84 200.729 331.712 151.294 283.419 139.59 267.587 117.047 237.091 95.946 205.578 73.493 175.019 63.818 161.851 55.347 151.617 58.422 134.532 61.276 118.682 64.47 112.983 56.351 97.756 46.909 80.047 34.159 63.433 23.109 46.685 15.286 34.827-3.884 15.677 0 0" fill="#231f20"/>
<path transform="matrix(1,0,0,-1,319.9089,824.5709)" d="M0 0C-5.937 10.952-14.154 20.021-19.652 31.401-24.84 42.14-28.113 54.939-35.634 64.41-53.773 87.251-86.972 79.067-112.273 77.551-143.802 75.661-175.357 76.103-206.881 77.922-223.754 78.896-243.199 80.297-260.016 81.969-274.329 83.392-300.836 81.179-312.625 88.614-334.949 102.694-300.023 119.575-287.17 120.824-250.986 124.339-211.038 120.886-174.733 121.156-145.161 121.376-118.087 125.69-89.324 131.894-55.359 139.221-23.189 131.05 10.782 127.982 35.868 125.716 64.118 124.832 80.452 147.053 93.875 165.312 96.699 192.339 76.573 206.708 54.004 222.823 20.71 230.68-4.845 241.055-35.961 253.688-67.294 265.998-98.1 279.373-120.406 289.057-138.308 308.117-108.033 322.473-76.535 337.409-60.822 320.555-33.744 305.796 21.017 275.949 79.932 253.956 135.111 224.643 163.816 209.393 192.083 193.307 219.808 176.337 248.296 158.901 271.797 136.857 297.304 115.529 316.982 99.075 343.045 82.328 356.461 59.927 371.111 35.465 361.759 4.186 354.625-21.385 338.366-79.663 307.666-121.581 252.219-146.202 229.333-156.365 198.632-166.369 179.24-182.454 157.684-200.334 148.071-222.916 119.168-232.544 107.037-236.584 94.149-238.561 82.133-232.826 72.235-228.101 66.194-218.571 55.99-214.115 30.397-202.941 7.139-216.892-10.996-234.43-18.606-241.789-32.51-254.742-33.741-265.581-35.112-277.657-23.84-285.165-15.457-292.49-5.696-301.019 4.823-308.611 15.86-315.398 26.145-321.723 47.277-327.207 53.84-338.213 59.245-347.278 54.81-358.481 43.857-360.211 34.766-361.648 19.083-352.929 11.059-349.825-15.395-339.591-24.505-324.1-43.73-305.535-89.479-261.356-120.572-358.294-163.812-366.581-205.854-374.638-194.138-339.66-175.276-319.51-153.141-295.866-129.859-274.617-103.606-255.663-45.523-213.729 9.301-167.458 68.776-127.463 81.448-118.941 137.277-67.786 139.757-109.733 141.589-140.711 83.926-149.277 74.546-174.226 66.247-196.298 112.682-201.195 125.737-194.722 152.877-181.266 158.817-142.773 191.55-138.278 168.538-104.395 139.285-73.134 116.315-38.253 104.549-20.384 94.961-.908 88.377 19.467 83.554 34.395 84.429 71.604 69.66 79.529 62.35 83.452 47.626 76.144 39.828 75.714 30.498 75.199 20.264 79.355 11.163 78.205-3.807 76.313-6.637 68.996-3.964 54.05-.772 36.212 13.904 10.402 30.609 2.072 44.346-4.777 71.157 1.752 76.667-17.629 85.739-49.535-20.731-38.032-38.839-41.963-85.996-52.203-130.369-67.463-179.466-69.08-192.245-69.501-223.818-57.851-205.885-39.089-195.99-28.737-159.178-33.985-146.147-32.146-98.747-25.457-44.55-17.793 0 0" fill="#231f20"/>
<path transform="matrix(1,0,0,-1,1221.1957,705.8325)" d="M0 0C-.709 18.232-4.921 36.079-11.818 52.93-18.003 68.04-37.386 89.464-26.502 106.212-1.378 144.873 24.131 52.938 26.386 38.591 30.388 13.13 22.594-45.167 55.031-49.917 70.104-52.124 105.175-45.484 117.352-54.644 131.987-65.655 119.786-78.875 106.814-80.858 67.139-86.925 21.567-77.586-18.437-75.655-55.459-73.868-106.94-61.169-141.84-77.62-169.587-90.698-168.3-131.683-135.255-136.141-112.323-139.234-109.01-132.684-91.109-149.988-77.157-163.473-61.445-173.584-43.927-181.903-26.541-190.159-8.337-196.653 9.343-204.243 24.399-210.706 51.27-217.069 57.303-234.386 69.721-270.027-17.932-227.141-29.735-221.399-51.125-210.995-103.142-169.343-119.696-197.525-125.718-207.776-143.693-231.908-141.169-243.733-137.851-259.277-104.939-277.607-93.027-286.423-82.695-294.069-68.207-308.798-85.807-319.746-102.015-329.828-121.616-306.514-132.743-296.733-161.232-271.688-204.854-248.355-167.823-210.918-158.822-201.818-142.996-190.324-147.477-174.675-151.826-159.487-173.029-159.344-182.908-168.69-193.386-178.603-194.042-197.136-200.057-209.724-207.588-225.486-231.123-235.764-220.473-252.668-209.805-269.6-186.74-285.223-172.365-299.082-155.803-315.05-139.461-331.23-123.108-347.411-112.115-358.289-97.099-378.78-81.218-382.477-62.58-386.815-56.297-365.006-49.531-351.492-40.942-334.337-32.912-308.711-18.516-295.492-4.684-282.791 10.296-293.089 10.713-310.197 11.479-341.599-14.152-380.166-35.233-401.171-46.694-412.59-58.66-428.019-76.326-422.07-94.513-415.945-113.107-392.474-127.092-380.011-160.467-350.27-192.177-319.187-223.586-287.411-232.446-278.448-250.274-256.221-264.357-271.124-276.454-283.926-253.575-302.584-245.774-312.696-218.11-348.556-190.277-384.288-162.301-419.906-149.118-436.69-135.983-453.537-122.456-470.048-112.646-482.022-93.882-509.035-76.591-507.342-60.04-505.722-44.202-481.906-34.698-470.138-21.245-453.482-8.306-436.211 3.284-418.207 12.651-403.657 19.76-388.571 39.047-396.39 56.554-403.487 60.695-419.381 49.102-433.803 37.052-448.793 17.747-459.209 3.764-472.384-11.938-487.178-26.134-503.447-39.874-520.054-47.837-529.679-62.684-549.645-76.248-552.408-90.182-555.246-103.232-539.136-111.32-529.496-141.264-493.807-170.018-457.054-199.192-420.735-227.616-385.351-258.012-350.746-284.217-313.682-306.698-281.884-316.751-245.722-335.724-212.466-355.126-178.455-384.154-155.281-420.302-141.026-447.846-130.164-472.588-103.066-459.531-70.907-446.012-37.608-392.615-18.373-362.05-6.089-318.363 11.468-274.366 28.382-230.489 45.466-187.458 62.222-143.651 82.171-99.279 94.952-87.831 98.25-61.797 101.354-54.962 87.087-46.036 68.458-80.585 67.712-90.647 64.654-104.739 60.37-128.64 55.443-138.373 44.047-148.787 31.854-145.385 12.361-144.295-2.326-143.292-15.839-144.078-29.497-130.733-36.434-114.297-44.976-82.362-41.182-64.281-42.471-50.906-43.425-32.496-47.197-19.921-40.691-4.54-32.734-3.703-14.955 0 0" fill="#231f20"/>
<path transform="matrix(1,0,0,-1,779.2001,1296.3827)" d="M0 0C-8.767 61.326-21.306 122.772-28.244 184.245-30.015 199.936-24.559 229.392-39.661 240.166-52.287 249.174-78.889 240.384-90.609 232.944-106.649 222.761-104.636 202.668-106.284 185.579-108.884 158.6-117.796 134.4-124.188 108.392-126.612 98.529-133.014 89.449-126.466 80.608-122.006 74.585-102.676 67.014-96.108 65.546-77.978 61.494-44.38 86.11-34.295 64.54-23.577 41.613-65.905 34.794-80.583 32.737-96.98 30.438-109.328 33.76-125.197 36.665-133.496 38.184-142.818 41.603-150.251 35.773-163.606 25.298-162.948-17.498-164.384-33.065-165.278-42.757-163.129-56.029-172.422-61.701-185.32-69.575-191.698-57.615-194.417-47.194-199.651-27.127-194.652 2.21-188.918 21.856-185.609 33.196-180.196 43.926-177.036 55.266-172.831 70.353-174.648 85.801-171.416 101.213-166.141 126.371-153.8 150.021-150.059 175.43-147.13 195.322-131.422 224.978-155.027 236.809-161.285 239.945-175.896 243.238-182.625 239.308-191.161 234.324-189.071 224.641-193.359 217.28-199.752 206.307-204.668 207.066-215.337 202.27-227.677 196.722-231.721 191.923-239.186 180.401-249.024 165.217-261.851 139.742-284.836 143.928-321.018 150.516-278.865 180.005-269.425 189.307-251.919 206.557-243.212 228.832-229.189 248.482-212.39 272.023-189.618 284.307-166.521 300.535-123.176 330.99-89.012 370.845-78.484 424.21-76.735 433.075-76.415 449.765-66.135 454.468-54.442 459.818-48.925 447.246-42.53 439.842-35.593 431.81-29.654 423.307-19.831 418.552-8.928 413.274 3.761 413.543 14.971 408.758 66.343 386.827 78.272 326.196 92.15 278.281 109.88 217.071 128.093 156.002 146.07 94.865 150.052 81.325 173.024 30.715 147.329 25.931 125.795 21.921 120.379 72.694 116.231 86.689 111.448 102.828 107.233 153.113 85.521 149.853 75.101 148.289 31.84 108.92 30.958 142.494 30.237 169.924 82.848 170.969 86.665 191.332 90.147 209.905 58.405 243.916 43.044 250.103 5.52 265.218 7.49 224.631 6.25 200.142 4.62 167.964 6.972 137.025 9.883 104.881 12.915 71.395 16.764 38.079 20.783 4.705 21.863-4.263 27.601-24.398 18.097-30.241-2.59-42.957-1.745-9.802-1.745-.244-1.163-.162-.582-.081 0 0" fill="#231f20"/>
</g>
</g>
</svg>
